<svg xmlns="http://www.w3.org/2000/svg" fill="none" viewBox="0 0 48 48" id="Cog--Streamline-Ionic-Filled" height="48" width="48">
  <desc>
    Cog Streamline Icon: https://streamlinehq.com
  </desc>
  <path fill="#000000" d="M47.52 23.3138c-0.0153 -0.2822 -0.1299 -0.5498 -0.3236 -0.7556 -0.1937 -0.2058 -0.454 -0.3361 -0.7348 -0.3685l-2.8993 -0.4692c-0.1304 -0.0213 -0.2504 -0.0844 -0.3421 -0.1794 -0.0916 -0.0952 -0.1502 -0.2175 -0.1668 -0.3486 -0.0553 -0.3562 -0.113 -0.726 -0.1921 -1.0765 -0.0255 -0.1275 -0.0106 -0.2598 0.0427 -0.3784 0.0533 -0.1186 0.1423 -0.2176 0.2546 -0.2831l2.5759 -1.4305c0.2558 -0.1304 0.4547 -0.3502 0.559 -0.6177 0.1042 -0.2674 0.1065 -0.5639 0.0063 -0.8331l-0.4466 -1.2325c-0.0978 -0.2699 -0.292 -0.4944 -0.5451 -0.6302 -0.253 -0.1358 -0.5473 -0.1734 -0.8264 -0.1059l-2.8892 0.5653c-0.1292 0.0232 -0.2623 0.0049 -0.3805 -0.0522 -0.1181 -0.0569 -0.2153 -0.1499 -0.2776 -0.2655 -0.1685 -0.3155 -0.3517 -0.6366 -0.5427 -0.9521 -0.0695 -0.1124 -0.102 -0.2437 -0.093 -0.3754 0.0089 -0.1318 0.0588 -0.2575 0.1426 -0.3597l1.9224 -2.2208c0.1953 -0.2096 0.3075 -0.4831 0.3156 -0.7695 0.0082 -0.2865 -0.0884 -0.5659 -0.2715 -0.7864l-0.8391 -1.0075c-0.1824 -0.221 -0.4404 -0.3666 -0.7243 -0.4084 -0.2837 -0.0418 -0.5727 0.0231 -0.8112 0.1822l-2.5296 1.5187c-0.1122 0.0673 -0.2428 0.0965 -0.373 0.0838 -0.1301 -0.0129 -0.2527 -0.0671 -0.3495 -0.1551 -0.2794 -0.2453 -0.5655 -0.4816 -0.8334 -0.6999 -0.1028 -0.0811 -0.1773 -0.193 -0.2121 -0.3192 -0.035 -0.1263 -0.0289 -0.2604 0.0176 -0.383l1.0471 -2.759c0.1141 -0.2633 0.1275 -0.5593 0.0375 -0.8317 -0.0898 -0.2725 -0.2766 -0.5025 -0.5248 -0.6463l-1.1411 -0.666c-0.2483 -0.1432 -0.5409 -0.1898 -0.8215 -0.1307 -0.2807 0.059 -0.5297 0.2195 -0.6993 0.4507l-1.8488 2.3226c-0.0665 0.101 -0.1661 0.1756 -0.2817 0.2111 -0.1155 0.0355 -0.2398 0.0297 -0.3516 -0.0166 -0.069 -0.0282 -0.6524 -0.2668 -1.1058 -0.4183 -0.1245 -0.0406 -0.2326 -0.1199 -0.3087 -0.2263 -0.0761 -0.1064 -0.1161 -0.2343 -0.1143 -0.3651l0.0441 -2.948c0.0157 -0.2878 -0.0739 -0.5715 -0.2522 -0.798 -0.1785 -0.2265 -0.4332 -0.3801 -0.7168 -0.4322L27.4206 0.7199c-0.2821 -0.0487 -0.5723 0.0066 -0.8167 0.1557 -0.2444 0.1492 -0.4263 0.3819 -0.512 0.6551l-0.9612 2.8054c-0.0436 0.1246 -0.1261 0.2318 -0.2351 0.3061 -0.109 0.0743 -0.2391 0.1117 -0.3709 0.1066h-1.1026c-0.1308 0.0027 -0.2592 -0.0359 -0.3668 -0.1104 -0.1075 -0.0746 -0.189 -0.1811 -0.2325 -0.3046l-0.9566 -2.7896c-0.0841 -0.2751 -0.2657 -0.5102 -0.5107 -0.6611 -0.245 -0.1509 -0.5366 -0.2073 -0.8202 -0.1587l-1.297 0.2262c-0.2816 0.0517 -0.5351 0.2039 -0.7131 0.4282 -0.178 0.2244 -0.2685 0.5058 -0.2548 0.7919l0.0452 2.9581c0.0009 0.1327 -0.041 0.2622 -0.1198 0.3692 -0.0785 0.107 -0.1897 0.1857 -0.3167 0.2244 -0.2589 0.1007 -0.8209 0.3155 -1.0764 0.4105 -0.2262 0.0814 -0.4727 -0.0079 -0.6717 -0.2375l-1.8387 -2.2615c-0.1686 -0.2326 -0.4174 -0.3947 -0.6984 -0.455 -0.2809 -0.0603 -0.5743 -0.0147 -0.8236 0.1282l-1.1375 0.6592c-0.251 0.1441 -0.4398 0.376 -0.53 0.6509 -0.0902 0.275 -0.0755 0.5736 0.0415 0.8384l1.0459 2.7522c0.0457 0.1228 0.0517 0.2568 0.0172 0.3832 -0.0345 0.1263 -0.1078 0.2387 -0.2094 0.3213 -0.2747 0.2262 -0.5564 0.4524 -0.8368 0.7034 -0.0963 0.0872 -0.2178 0.1411 -0.3472 0.1541 -0.129 0.013 -0.2592 -0.0157 -0.3709 -0.0818L7.943 8.14c-0.24 -0.1562 -0.5288 -0.2194 -0.8122 -0.1776 -0.2834 0.0416 -0.5417 0.1851 -0.7267 0.4038l-0.8356 1.0052c-0.1857 0.2189 -0.284 0.4985 -0.2763 0.7855 0.0077 0.2868 0.121 0.5608 0.3181 0.7693l1.9313 2.2186c0.0858 0.0999 0.137 0.2248 0.1462 0.3563 0.009 0.1314 -0.0243 0.2622 -0.0953 0.3731 -0.1934 0.3074 -0.3777 0.6309 -0.545 0.9543 -0.0625 0.1164 -0.1605 0.2099 -0.2794 0.2672 -0.1191 0.0573 -0.2532 0.0755 -0.3832 0.0517l-2.8846 -0.5575c-0.2793 -0.0674 -0.5736 -0.0295 -0.8268 0.1062 -0.2532 0.1358 -0.4476 0.36 -0.546 0.6299l-0.4523 1.2303c-0.1 0.2695 -0.0976 0.5662 0.0066 0.834 0.1042 0.2679 0.303 0.4881 0.5588 0.619l2.5759 1.4305c0.1158 0.0639 0.2077 0.1638 0.2618 0.2845 0.054 0.1209 0.0673 0.256 0.0378 0.3849l-0.0271 0.1436c-0.0588 0.3155 -0.1131 0.614 -0.1651 0.9317 -0.018 0.1296 -0.0764 0.2501 -0.167 0.3443 -0.0906 0.0942 -0.2087 0.1574 -0.3373 0.1804l-2.905 0.4693c-0.284 0.0349 -0.5457 0.172 -0.7361 0.3856 -0.1904 0.2138 -0.2965 0.4895 -0.2985 0.7757v1.3095c-0.0017 0.2873 0.1034 0.5649 0.2947 0.7793 0.1913 0.2143 0.4554 0.35 0.7411 0.3808l2.9038 0.4682c0.1305 0.0212 0.2506 0.0841 0.3423 0.1792 0.0917 0.0953 0.1502 0.2176 0.1665 0.3489 0.0554 0.3572 0.1131 0.7258 0.1923 1.0763 0.0255 0.1277 0.0105 0.26 -0.0428 0.3785 -0.0533 0.1186 -0.1423 0.2176 -0.2546 0.2831l-2.5748 1.4327c-0.2558 0.1304 -0.4547 0.3503 -0.5589 0.6177 -0.1043 0.2675 -0.1066 0.564 -0.0065 0.8331l0.4523 1.2325c0.0982 0.2699 0.2923 0.4941 0.5454 0.6298 0.253 0.1358 0.5471 0.1737 0.8263 0.1063l2.8891 -0.5597c0.1292 -0.0234 0.2625 -0.0053 0.3807 0.0518 0.1183 0.0571 0.2154 0.1503 0.2774 0.2659 0.1696 0.3166 0.3516 0.6366 0.5428 0.9522 0.0697 0.1123 0.1024 0.2436 0.0935 0.3755 -0.009 0.1318 -0.059 0.2577 -0.1433 0.3594L5.625 37.0605c-0.1976 0.2081 -0.3123 0.4811 -0.3228 0.768 -0.0104 0.2866 0.0843 0.5672 0.2663 0.7892l0.8378 1.0075c0.1824 0.2213 0.4406 0.367 0.7244 0.4089 0.2836 0.0417 0.5728 -0.0234 0.8112 -0.1828l2.5296 -1.5186c0.1122 -0.0672 0.2429 -0.0965 0.373 -0.0838 0.1301 0.0128 0.2526 0.0672 0.3495 0.155 0.2804 0.2454 0.5655 0.4817 0.8333 0.7 0.1029 0.0813 0.1772 0.193 0.2123 0.3191 0.0353 0.1262 0.0295 0.2603 -0.0166 0.3831l-1.0482 2.759c-0.114 0.2633 -0.1273 0.5593 -0.0375 0.8316 0.0899 0.2726 0.2767 0.5027 0.5248 0.6463l1.1432 0.6604c0.2484 0.1434 0.5409 0.1902 0.8214 0.1313 0.2807 -0.0588 0.5298 -0.219 0.6996 -0.4502l1.8714 -2.301c0.1582 -0.1957 0.4071 -0.2828 0.5914 -0.2081 0.3934 0.1628 0.657 0.2544 1.124 0.4105 0.1244 0.0406 0.2325 0.1199 0.3088 0.2263 0.0763 0.1063 0.1166 0.2342 0.1152 0.3651l-0.0453 2.9456c-0.0152 0.2877 0.0747 0.5712 0.253 0.7976 0.1784 0.2263 0.4329 0.3802 0.7161 0.4326l1.2948 0.2262c0.2821 0.0493 0.5726 -0.0059 0.817 -0.155 0.2445 -0.1492 0.4263 -0.3823 0.5116 -0.6558l0.9612 -2.8008c0.0435 -0.1246 0.1258 -0.232 0.2349 -0.3064 0.1092 -0.0743 0.2393 -0.1116 0.3712 -0.1064h1.1024c0.131 -0.0029 0.2595 0.0357 0.3671 0.1103 0.1076 0.0746 0.189 0.1813 0.2323 0.3048l0.9578 2.7895c0.0742 0.2422 0.224 0.4542 0.4275 0.6051 0.2036 0.1507 0.4499 0.2323 0.7032 0.2328 0.0675 0.0002 0.1349 -0.0059 0.2013 -0.0181l1.297 -0.2261c0.2817 -0.0517 0.535 -0.2039 0.7132 -0.4282 0.1779 -0.2244 0.2685 -0.5059 0.2547 -0.7919l-0.0452 -2.9581c-0.001 -0.1303 0.0398 -0.2575 0.116 -0.3632 0.0762 -0.1058 0.1841 -0.1844 0.3081 -0.2248 0.4341 -0.1459 0.7395 -0.2635 1.0075 -0.3675l0.0678 -0.026c0.3505 -0.1211 0.5201 0.026 0.6185 0.1481l1.894 2.3328c0.1698 0.2307 0.4187 0.3909 0.6991 0.4496 0.2804 0.0589 0.5725 0.0123 0.8207 -0.1307l1.1386 -0.6593c0.2492 -0.1438 0.4366 -0.3744 0.5264 -0.6476 0.09 -0.2733 0.076 -0.57 -0.0389 -0.8337l-1.0448 -2.7522c-0.0462 -0.1227 -0.0525 -0.2567 -0.0181 -0.3831 0.0342 -0.1265 0.1073 -0.239 0.2091 -0.3215 0.2748 -0.2261 0.5563 -0.4523 0.8368 -0.7033 0.0969 -0.0873 0.2194 -0.1413 0.3491 -0.1539 0.1298 -0.0126 0.2603 0.0168 0.3723 0.0838l2.5318 1.5152c0.2401 0.1565 0.5288 0.2199 0.8124 0.1782 0.2833 -0.0416 0.5417 -0.1854 0.7266 -0.4043l0.8367 -1.0065c0.1858 -0.2188 0.2841 -0.4983 0.2763 -0.7852 -0.0077 -0.2869 -0.1209 -0.5608 -0.318 -0.7695l-1.9292 -2.2242c-0.0857 -0.1 -0.1369 -0.2248 -0.146 -0.3563 -0.0092 -0.1313 0.0241 -0.2622 0.0951 -0.3731 0.1934 -0.3065 0.3777 -0.6298 0.5451 -0.9544 0.0628 -0.1159 0.1608 -0.2094 0.2797 -0.2666 0.1189 -0.0573 0.2529 -0.0755 0.383 -0.0522l2.8811 0.562c0.2793 0.0674 0.5737 0.0296 0.8269 -0.1062 0.2532 -0.1357 0.4475 -0.36 0.5459 -0.63l0.4466 -1.2303c0.1 -0.2692 0.0976 -0.5656 -0.0066 -0.8333s-0.3031 -0.4878 -0.5588 -0.6185l-2.5781 -1.4327c-0.1142 -0.0647 -0.2046 -0.1642 -0.2578 -0.2842 -0.053 -0.12 -0.0662 -0.2539 -0.0373 -0.3818l0.0271 -0.1437c0.0587 -0.3154 0.113 -0.6139 0.1651 -0.9318 0.018 -0.1294 0.0764 -0.2498 0.1669 -0.344 0.0906 -0.0943 0.2087 -0.1574 0.3374 -0.1805l2.905 -0.4683c0.2847 -0.0343 0.5472 -0.1712 0.7384 -0.3852 0.191 -0.214 0.2975 -0.4903 0.2996 -0.7772v-1.3241ZM15.5815 33.943c-0.1409 0.245 -0.338 0.4532 -0.575 0.6072 -0.2369 0.1541 -0.5071 0.2497 -0.7882 0.2791 -0.2811 0.0294 -0.5653 -0.0084 -0.8289 -0.1101 -0.2638 -0.1018 -0.4995 -0.2648 -0.688 -0.4754 -2.5475 -2.8166 -3.9541 -6.4816 -3.9453 -10.2794 0.0088 -3.7978 1.4323 -7.4561 3.9928 -10.261 0.1895 -0.2106 0.4263 -0.3731 0.6909 -0.4742 0.2645 -0.1009 0.5494 -0.1377 0.8309 -0.1072 0.2817 0.0306 0.552 0.1277 0.7886 0.2832 0.2368 0.1556 0.4331 0.3651 0.5731 0.6114l5.1619 9.0857c0.155 0.2711 0.2365 0.5778 0.2365 0.8899 0 0.3122 -0.0815 0.619 -0.2365 0.8899l-5.2128 9.0609ZM24 39.2779c-1.0761 0.0004 -2.1491 -0.1134 -3.2013 -0.3392 -0.274 -0.0611 -0.5298 -0.1861 -0.7466 -0.3646 -0.2167 -0.1786 -0.3885 -0.4056 -0.5011 -0.6629 -0.1127 -0.2573 -0.1631 -0.5375 -0.1473 -0.8179 0.0158 -0.2803 0.0975 -0.5531 0.2383 -0.7961l5.2015 -9.0461c0.1566 -0.2725 0.3821 -0.499 0.6543 -0.6564 0.2718 -0.1576 0.5807 -0.2404 0.8949 -0.2403h10.4189c0.2807 -0.0005 0.5575 0.0652 0.808 0.1918 0.2506 0.1265 0.4678 0.3102 0.6341 0.5363 0.1662 0.2261 0.277 0.4882 0.323 0.765 0.0462 0.2768 0.0265 0.5606 -0.0576 0.8284 -1.9778 6.1423 -7.7345 10.602 -14.519 10.602Zm0.8492 -18.5333 -5.1461 -9.062c-0.1395 -0.2432 -0.2197 -0.5161 -0.2343 -0.7961 -0.0144 -0.2801 0.0371 -0.5596 0.1504 -0.8163 0.1137 -0.2564 0.2858 -0.4826 0.5029 -0.6602 0.2171 -0.1775 0.4729 -0.3016 0.7468 -0.362 1.0295 -0.217 2.0789 -0.3261 3.1311 -0.3257 6.7846 0 12.5413 4.4597 14.5157 10.6055 0.0839 0.2678 0.1037 0.5516 0.0576 0.8285 -0.046 0.2767 -0.1568 0.539 -0.323 0.765 -0.1663 0.226 -0.3835 0.4097 -0.634 0.5363 -0.2506 0.1264 -0.5274 0.1921 -0.8081 0.1916H26.4051c-0.3162 0.0007 -0.6269 -0.0827 -0.9002 -0.2417 -0.2735 -0.1589 -0.4998 -0.3877 -0.6557 -0.6629Z" stroke-width="1"></path>
</svg>